<svg xmlns="http://www.w3.org/2000/svg" viewBox="0 0 32 32">
  <rect width="32" height="32" fill="#B22234"/>
  <rect width="32" height="2.5" y="2.5" fill="#FFFFFF"/>
  <rect width="32" height="2.5" y="7.5" fill="#FFFFFF"/>
  <rect width="32" height="2.5" y="12.5" fill="#FFFFFF"/>
  <rect width="32" height="2.5" y="17.5" fill="#FFFFFF"/>
  <rect width="32" height="2.5" y="22.5" fill="#FFFFFF"/>
  <rect width="32" height="2.5" y="27.5" fill="#FFFFFF"/>
  <rect width="13" height="17" fill="#3C3B6E"/>
  <g fill="#FFFFFF">
    <circle cx="2.5" cy="2.5" r="0.5"/>
    <circle cx="6.5" cy="2.5" r="0.5"/>
    <circle cx="10.5" cy="2.5" r="0.5"/>
    <circle cx="4.5" cy="4.5" r="0.5"/>
    <circle cx="8.5" cy="4.5" r="0.5"/>
    <circle cx="2.5" cy="6.5" r="0.5"/>
    <circle cx="6.5" cy="6.5" r="0.5"/>
    <circle cx="10.5" cy="6.5" r="0.5"/>
    <circle cx="4.5" cy="8.5" r="0.5"/>
    <circle cx="8.5" cy="8.5" r="0.5"/>
    <circle cx="2.5" cy="10.5" r="0.5"/>
    <circle cx="6.5" cy="10.5" r="0.5"/>
    <circle cx="10.5" cy="10.5" r="0.5"/>
    <circle cx="4.5" cy="12.5" r="0.5"/>
    <circle cx="8.5" cy="12.5" r="0.5"/>
    <circle cx="2.5" cy="14.5" r="0.5"/>
    <circle cx="6.5" cy="14.5" r="0.5"/>
    <circle cx="10.5" cy="14.5" r="0.5"/>
  </g>
</svg>
